<?xml version="1.0" standalone="no"?>
<!DOCTYPE svg PUBLIC "-//W3C//DTD SVG 20010904//EN"
 "http://www.w3.org/TR/2001/REC-SVG-20010904/DTD/svg10.dtd">
<svg version="1.0" xmlns="http://www.w3.org/2000/svg"
 width="213.000000pt" height="246.000000pt" viewBox="0 0 213.000000 246.000000"
 preserveAspectRatio="xMidYMid meet">
<metadata>
Created by potrace 1.15, written by Peter Selinger 2001-2017
</metadata>
<g transform="translate(0.000000,246.000000) scale(0.100000,-0.100000)"
fill="#000000" stroke="none">
<path d="M1170 2441 c-77 -41 -104 -131 -55 -189 14 -17 39 -33 54 -37 27 -6
31 -12 45 -78 40 -183 83 -397 79 -397 -41 0 -550 53 -554 58 -3 4 -12 47 -18
95 -11 83 -11 89 9 114 24 31 26 66 4 87 -23 24 -52 19 -85 -13 -32 -32 -37
-65 -15 -90 14 -15 36 -119 36 -170 0 -23 -2 -23 -57 -18 -32 4 -88 9 -125 13
-59 5 -68 9 -68 26 0 11 -16 36 -35 55 -34 34 -38 35 -90 31 -59 -5 -102 -34
-131 -90 -55 -105 59 -218 165 -164 15 8 42 31 60 51 l32 37 122 -12 c67 -7
127 -13 132 -15 9 -2 66 -368 65 -417 0 -25 -561 -358 -601 -358 -60 0 -121
-51 -134 -110 -14 -62 53 -125 119 -113 63 12 124 111 98 160 -9 17 17 35 261
181 l272 161 22 -152 c12 -83 20 -153 18 -155 -2 -2 -52 4 -110 14 -75 13
-109 23 -113 34 -9 26 -34 50 -53 50 -10 0 -31 -12 -48 -26 -36 -30 -41 -72
-12 -98 17 -15 24 -16 53 -6 47 16 291 -27 296 -53 3 -13 -4 -17 -31 -17 -82
0 -163 -107 -137 -184 25 -75 108 -108 180 -71 17 9 30 12 30 8 0 -5 10 -75
22 -156 l21 -149 -29 -23 -29 -24 31 11 c44 16 96 3 130 -33 24 -25 29 -39 29
-79 0 -66 -27 -95 -88 -95 -83 0 -140 71 -120 148 8 30 8 35 -3 26 -20 -17
-36 -76 -29 -109 8 -39 56 -86 93 -93 71 -14 163 52 177 127 10 49 -19 105
-66 130 l-36 20 -25 190 c-14 105 -25 210 -23 234 2 40 6 46 53 78 28 19 59
34 69 34 30 0 465 -80 477 -88 6 -3 18 -5 26 -4 9 1 51 -5 95 -13 44 -9 96
-18 115 -21 19 -3 62 -10 95 -17 54 -11 60 -15 63 -39 2 -15 17 -38 33 -53
101 -85 253 73 160 166 -43 42 -99 39 -156 -11 -19 -16 -28 -16 -199 16 -98
18 -179 34 -180 36 -2 2 -19 81 -38 176 l-36 172 262 177 c143 97 276 180 295
185 40 12 81 53 81 83 0 25 -29 55 -52 55 -22 0 -65 -37 -80 -68 -14 -29 -503
-367 -517 -357 -5 2 -12 26 -16 52 -4 27 -20 108 -36 181 -16 73 -29 141 -29
151 0 11 14 28 30 38 33 21 117 23 248 8 53 -6 65 -11 72 -30 12 -31 58 -65
89 -65 51 0 121 68 121 117 0 93 -117 131 -176 57 -21 -25 -22 -26 -112 -19
-90 7 -92 8 -86 31 4 17 -1 30 -21 49 -33 34 -68 28 -111 -20 -37 -42 -79 -48
-88 -12 -24 98 -96 465 -93 477 8 31 -45 54 -69 30 -28 -28 -77 32 -77 93 0
52 22 72 79 72 39 0 50 -5 75 -33 31 -35 38 -84 18 -125 -9 -19 -7 -18 10 3
45 55 37 130 -19 168 -40 27 -65 28 -110 3z m-807 -581 c60 -67 25 -170 -59
-170 -72 0 -124 51 -124 123 0 94 114 123 183 47z m1502 -134 c38 -16 55 -42
55 -85 0 -39 -24 -61 -66 -61 -75 0 -117 96 -62 143 24 21 29 21 73 3z m-840
-21 c143 -14 266 -25 273 -25 8 0 12 -9 10 -20 -2 -15 -74 -63 -253 -170 -137
-82 -250 -148 -251 -147 -4 4 -54 346 -54 367 0 11 3 20 8 20 4 0 124 -11 267
-25z m346 -322 c21 -103 39 -195 39 -203 0 -13 -245 -189 -340 -245 -9 -5 -29
-18 -43 -28 -22 -16 -32 -17 -92 -6 -36 6 -68 16 -71 23 -5 13 -54 350 -51
352 35 25 512 303 515 300 2 -3 21 -89 43 -193z m89 -433 c17 -78 29 -144 28
-146 -2 -2 -261 44 -383 68 -12 2 43 43 151 115 92 62 169 111 171 109 2 -1
17 -67 33 -146z m-1311 -34 c46 -24 66 -92 37 -131 -10 -14 -26 -20 -55 -20
-57 0 -96 39 -96 96 0 64 50 88 114 55z m658 -124 c15 -9 39 -162 30 -186 -9
-22 -80 -21 -118 1 -31 18 -59 67 -59 103 0 26 25 76 42 83 21 8 92 7 105 -1z
m1254 -71 c33 -34 40 -89 13 -115 -25 -25 -90 -21 -119 9 -27 26 -32 45 -14
45 8 0 10 14 6 40 -6 43 -1 48 51 49 24 1 42 -7 63 -28z"/>
<path d="M1484 686 c-37 -37 -43 -69 -18 -104 10 -15 25 -22 49 -22 74 0 128
106 73 144 -35 25 -67 19 -104 -18z"/>
</g>
</svg>
